<?xml version="1.0" encoding="UTF-8" standalone="no"?>
<!-- Created with Inkscape (http://www.inkscape.org/) -->

<svg
   width="64"
   height="64"
   stroke="none" 
   fill="#989898" 
   fill-rule="nonzero"
   viewBox="0 0 16.933333 16.933333"
   version="1.1"
   id="svg5"
   sodipodi:docname="न.svg"
   inkscape:version="1.2.1 (9c6d41e410, 2022-07-14)"
   xmlns:inkscape="http://www.inkscape.org/namespaces/inkscape"
   xmlns:sodipodi="http://sodipodi.sourceforge.net/DTD/sodipodi-0.dtd"
   xmlns="http://www.w3.org/2000/svg"
   xmlns:svg="http://www.w3.org/2000/svg">
  <sodipodi:namedview
     id="namedview7"
     pagecolor="#505050"
     bordercolor="#eeeeee"
     borderopacity="1"
     inkscape:showpageshadow="0"
     inkscape:pageopacity="0"
     inkscape:pagecheckerboard="0"
     inkscape:deskcolor="#505050"
     inkscape:document-units="mm"
     showgrid="false"
     inkscape:zoom="6.7277217"
     inkscape:cx="12.782931"
     inkscape:cy="32.031646"
     inkscape:window-width="1920"
     inkscape:window-height="991"
     inkscape:window-x="-9"
     inkscape:window-y="-9"
     inkscape:window-maximized="1"
     inkscape:current-layer="text236" />
  <defs
     id="defs2" />
  <g
     inkscape:label="Layer 1"
     inkscape:groupmode="layer"
     id="layer1">
    <g
       aria-label="औ"
       id="text236"
       style="font-size:16.6496px;line-height:0.95;text-align:center;text-anchor:middle;stroke-width:0.416245">
      <g
         aria-label="द"
         id="text343"
         style="font-size:12.5654px;stroke-width:0.130759">
        <path
           d="M 10.653046,13.473978 Q 10.338911,13.021624 10.012211,12.43105 9.6980757,11.853042 9.5095947,11.33786 l 0.251308,0.163351 q -0.1130886,0.05026 -0.3392658,0.08796 -0.2136118,0.02513 -0.4900506,0.02513 -0.5403122,0 -1.0554936,-0.201046 Q 7.3734767,11.199641 6.9462531,10.84781 6.5567257,10.495979 6.2677214,10.018493 5.9912826,9.5284428 5.9912826,8.937869 q 0,-0.6031392 0.314135,-1.0554937 0.3267005,-0.4523544 0.8921435,-0.7162278 0.5780084,-0.2638734 1.3444978,-0.2638734 0.2136118,0 0.4272236,0.025131 0.2136118,0.012565 0.4146582,0.037696 l -0.2387426,0.251308 v -2.136118 h 1.1057549 v 2.6136032 q -0.175915,-0.012565 -0.3518309,-0.012565 -0.1633502,0 -0.251308,0 -0.879578,0 -1.4827172,0.2136118 -0.5905738,0.2136118 -0.9047088,0.5905739 -0.3015696,0.376962 -0.3015696,0.879578 0,0.5528776 0.376962,0.9298394 0.376962,0.364397 1.005232,0.364397 0.3392658,0 0.5780084,-0.06283 0.2387426,-0.07539 0.376962,-0.188481 l -0.050262,0.339266 Q 9.1326327,10.54624 9.0823711,10.357759 q -0.037696,-0.188481 -0.037696,-0.351831 0,-0.314135 0.2010464,-0.5151814 0.2136118,-0.2136118 0.5403122,-0.2136118 0.3015695,0 0.5654425,0.1759156 0.263874,0.1633502 0.427224,0.439789 0.175916,0.2638736 0.175916,0.5654426 0,0.289005 -0.226178,0.578009 -0.226177,0.289004 -0.7664889,0.439789 l 0.1256539,-0.351831 q 0.125654,0.238742 0.3267,0.502616 0.213612,0.263873 0.452355,0.515181 0.238742,0.251308 0.477485,0.477485 0.238743,0.226177 0.427224,0.389528 z M 5.4635358,5.4949493 4.9106582,4.6781983 V 4.5274135 h 6.5591388 l 0.552878,0.8418818 v 0.125654 z"
           style="font-family:'Noto Serif Devanagari';-inkscape-font-specification:'Noto Serif Devanagari'"
           id="path1310" />
      </g>
    </g>
  </g>
</svg>
