<?xml version="1.0" encoding="UTF-8" standalone="no"?>
<!-- Created with Inkscape (http://www.inkscape.org/) -->

<svg
   width="64"
   height="64"
   stroke="none" 
   fill="#989898" 
   fill-rule="nonzero"
   viewBox="0 0 16.933333 16.933333"
   version="1.1"
   id="svg5"
   sodipodi:docname="न.svg"
   inkscape:version="1.2.1 (9c6d41e410, 2022-07-14)"
   xmlns:inkscape="http://www.inkscape.org/namespaces/inkscape"
   xmlns:sodipodi="http://sodipodi.sourceforge.net/DTD/sodipodi-0.dtd"
   xmlns="http://www.w3.org/2000/svg"
   xmlns:svg="http://www.w3.org/2000/svg">
  <sodipodi:namedview
     id="namedview7"
     pagecolor="#505050"
     bordercolor="#eeeeee"
     borderopacity="1"
     inkscape:showpageshadow="0"
     inkscape:pageopacity="0"
     inkscape:pagecheckerboard="0"
     inkscape:deskcolor="#505050"
     inkscape:document-units="mm"
     showgrid="false"
     inkscape:zoom="6.7277217"
     inkscape:cx="12.782931"
     inkscape:cy="32.031646"
     inkscape:window-width="1920"
     inkscape:window-height="991"
     inkscape:window-x="-9"
     inkscape:window-y="-9"
     inkscape:window-maximized="1"
     inkscape:current-layer="text236" />
  <defs
     id="defs2" />
  <g
     inkscape:label="Layer 1"
     inkscape:groupmode="layer"
     id="layer1">
    <g
       aria-label="औ"
       id="text236"
       style="font-size:16.6496px;line-height:0.95;text-align:center;text-anchor:middle;stroke-width:0.416245">
      <g
         aria-label="र"
         id="text343"
         style="font-size:12.5654px;stroke-width:0.130759">
        <path
           d="M 9.8425777,12.531573 Q 9.2268731,12.041523 8.6739955,11.488645 8.1211179,10.923202 7.6938943,10.357759 7.2792361,9.7923162 7.0279281,9.2771348 6.7891855,8.7619534 6.7891855,8.372426 q 0,-0.3518313 0.188481,-0.5151815 0.2010464,-0.1759156 0.5528776,-0.1759156 0.3015696,0 0.6408354,0.125654 0.3392658,0.1130886 0.691097,0.3392658 l -0.502616,0.012565 Q 8.5986031,7.9200715 8.6865609,7.5682403 8.7870841,7.2164091 8.7870841,6.8143163 q 0,-0.3895274 -0.075392,-0.7790548 -0.062827,-0.4020928 -0.188481,-0.7413586 h 0.9801012 q 0.1507848,0.4649198 0.2387426,0.9675358 0.1005232,0.4900506 0.1005232,0.9675358 0,0.8544472 -0.4146582,1.3947595 Q 9.0258267,9.1640462 8.2090757,9.2771348 8.0708563,9.2897002 7.9452023,9.314831 7.8195483,9.3273964 7.7190251,9.3273964 L 7.6813289,9.0383922 q 0.3392658,0.5403122 0.8293164,1.0303628 0.502616,0.490051 1.0554936,0.904709 0.5528771,0.402093 1.0806241,0.716228 z M 6.022696,5.4949493 5.4698184,4.6781983 V 4.5274135 h 5.4533836 l 0.540312,0.8418818 v 0.125654 z"
           style="font-family:'Noto Serif Devanagari';-inkscape-font-specification:'Noto Serif Devanagari'"
           id="path1400" />
      </g>
    </g>
  </g>
</svg>
